<svg xmlns="http://www.w3.org/2000/svg" viewBox="0 0 20 20" width="20" height="20" fill="#0088cc">
  <path d="M10 1.67c-4.6 0-8.33 3.73-8.33 8.33s3.73 8.33 8.33 8.33 8.33-3.73 8.33-8.33-3.73-8.33-8.33-8.33zm3.87 5.67c-.13 1.32-.67 4.52-.94 5.99-.12.63-.35.84-.57.86-.48.04-.85-.32-1.32-.63-.73-.48-1.15-.78-1.86-1.25-.82-.54-.29-.84.18-1.33.13-.13 2.26-2.06 2.3-2.24.01-.02.01-.1-.04-.14-.05-.04-.13-.03-.18-.02-.08.01-1.27.8-3.58 2.36-.34.23-.65.35-.92.34-.3-.01-.88-.17-1.32-.32-.52-.18-.95-.27-.92-.57.02-.16.24-.32.68-.48 2.65-1.15 4.42-1.91 5.29-2.28 2.52-1.06 3.04-1.25 3.38-1.26.08 0 .24.02.35.11.09.08.12.19.13.29.01.04.02.08.01.11z"/>
</svg>