<svg xmlns="http://www.w3.org/2000/svg" viewBox="0 0 24 24" width="24" height="24" fill="#0088cc">
  <path d="M12 2C6.48 2 2 6.48 2 12s4.48 10 10 10 10-4.48 10-10S17.52 2 12 2zm4.64 6.8c-.15 1.58-.8 5.42-1.13 7.19-.14.75-.42 1-.68 1.03-.58.05-1.02-.38-1.58-.75-.88-.58-1.38-.94-2.23-1.5-.99-.65-.35-1.01.22-1.59.15-.15 2.71-2.48 2.76-2.69.01-.03.01-.12-.05-.17-.06-.05-.15-.03-.21-.02-.09.01-1.52.96-4.29 2.83-.41.28-.78.42-1.11.41-.36-.01-1.06-.2-1.58-.38-.63-.21-1.14-.32-1.1-.68.02-.19.29-.38.81-.58 3.18-1.38 5.3-2.29 6.35-2.73 3.02-1.28 3.65-1.5 4.06-1.51.09 0 .29.02.42.13.11.09.14.22.16.35.01.04.02.09.01.13z"/>
</svg>